<?xml version="1.0" encoding="UTF-8"?>
<svg version="1.1" xmlns="http://www.w3.org/2000/svg" width="500" height="500">
<path d="M0 0 C2.33196844 -0.00378753 4.66393462 -0.00929114 6.99589539 -0.01637268 C13.30146957 -0.03028539 19.60676963 -0.01918776 25.91232848 -0.00266147 C31.85153527 0.00981969 37.79071476 0.0055728 43.7299302 0.00220882 C55.49610545 -0.00365653 67.26217335 0.01045144 79.02832031 0.03515625 C90.42842631 0.05908956 101.82838901 0.06615244 113.22851562 0.05566406 C125.66712124 0.04424064 138.10566074 0.0423411 150.54426557 0.05676216 C157.12000988 0.06429284 163.69569707 0.06820881 170.27144432 0.06225777 C176.45133108 0.057479 182.63102006 0.06762724 188.81086922 0.08921242 C191.07596037 0.09476741 193.34107058 0.09525744 195.60616302 0.09025955 C198.70296668 0.0842843 201.79917012 0.09685509 204.8959198 0.11402893 C206.23338683 0.10501386 206.23338683 0.10501386 207.59787339 0.09581667 C218.04970491 0.20088609 226.51915056 3.90005483 234.43286133 10.62670898 C235.93286133 12.50170898 235.93286133 12.50170898 235.93286133 15.50170898 C236.59286133 15.50170898 237.25286133 15.50170898 237.93286133 15.50170898 C241.90513272 23.4255458 242.50391742 30.31521831 242.4407959 39.08911133 C242.4454126 40.44355627 242.45177066 41.79799619 242.45970488 43.15242577 C242.4763161 46.8503806 242.46818968 50.54791954 242.45576 54.24587536 C242.44667794 58.24322942 242.46069483 62.24051394 242.47167969 66.237854 C242.48943593 74.05917853 242.48563787 81.88034923 242.47402912 89.70167971 C242.46498366 96.06006409 242.46377561 102.41840546 242.46812439 108.77679443 C242.46873732 109.68287079 242.46935025 110.58894715 242.46998176 111.52248037 C242.4712607 113.36334373 242.47255756 115.20420708 242.47387213 117.04507041 C242.48526944 134.2937168 242.47217754 151.54227806 242.45067066 168.79091048 C242.43280045 183.58062031 242.43590479 198.37020455 242.4543457 213.15991211 C242.47576741 230.34820179 242.48417089 247.53641692 242.47189665 264.72471809 C242.4706225 266.55868656 242.46936501 268.39265504 242.46812439 270.22662354 C242.46719874 271.58003029 242.46719874 271.58003029 242.46625438 272.96077859 C242.46280538 279.30913676 242.46862012 285.65744752 242.4780426 292.00579834 C242.48927841 299.74576536 242.48618934 307.48557019 242.46491963 315.2255187 C242.45443044 319.17213712 242.45025076 323.11848541 242.46351624 327.06510162 C242.47549054 330.68237441 242.46879566 334.29912829 242.44760603 337.91635442 C242.44106571 339.83514872 242.45403095 341.75397942 242.46783495 343.67273521 C242.36830154 354.7062241 239.65441173 362.5654427 232.01489258 370.58764648 C224.57857292 377.42403792 216.71410865 377.65166539 207.07791138 377.63542175 C205.59635884 377.63882009 205.59635884 377.63882009 204.08487594 377.64228708 C200.77784483 377.64861324 197.47085485 377.6477986 194.16381836 377.64697266 C191.79170682 377.64996499 189.41959576 377.65336769 187.04748535 377.65715027 C181.27439904 377.66506875 175.50132518 377.66820457 169.72823371 377.66876265 C165.0345078 377.66923832 160.34078524 377.67129565 155.64706039 377.67446327 C142.33135101 377.68326631 129.01564967 377.68788315 115.69993736 377.6871328 C114.98257864 377.68709284 114.26521991 377.68705289 113.52612305 377.68701172 C112.80788576 377.68697084 112.08964848 377.68692996 111.34964643 377.68688784 C99.70920436 377.68648137 88.06879463 377.69605199 76.42836191 377.71015009 C64.46807977 377.72452097 52.50781341 377.73141989 40.54752243 377.73055631 C33.83590889 377.73022461 27.12432928 377.73296003 20.41272354 377.74373436 C14.10082992 377.75341203 7.78900796 377.75349673 1.47711182 377.74621773 C-0.83839141 377.74517152 -3.1538991 377.74753694 -5.46939468 377.75357819 C-8.63242125 377.7612957 -11.7952002 377.75665473 -14.95822144 377.74894714 C-15.87243547 377.75409071 -16.78664951 377.75923427 -17.728567 377.7645337 C-23.78458683 377.73196813 -29.55318832 377.25868416 -35.06713867 374.50170898 C-35.06713867 373.84170898 -35.06713867 373.18170898 -35.06713867 372.50170898 C-35.76838867 372.31608398 -36.46963867 372.13045898 -37.19213867 371.93920898 C-43.97603019 368.54726322 -46.83908394 362.56848634 -49.2460928 355.64501953 C-50.69942095 350.08106527 -50.61660819 344.59710891 -50.57507324 338.87670898 C-50.57969151 337.53036324 -50.58605061 336.18402256 -50.59398222 334.83769226 C-50.61057195 331.16672923 -50.60247697 327.4961859 -50.59003735 323.82522202 C-50.58094635 319.85513313 -50.59497656 315.88511388 -50.60595703 311.91503906 C-50.62370383 304.14899531 -50.61991945 296.38310657 -50.60830647 288.61705685 C-50.59925726 282.30304128 -50.59805457 275.98906902 -50.60240173 269.67504883 C-50.60301467 268.7749474 -50.6036276 267.87484598 -50.6042591 266.94746876 C-50.60553806 265.11868666 -50.60683491 263.28990458 -50.60814947 261.46112251 C-50.61954402 244.32975685 -50.60645924 227.19847692 -50.584948 210.06712532 C-50.56707804 195.38121445 -50.57018247 180.69543007 -50.58862305 166.00952148 C-50.61004965 148.9376772 -50.61844549 131.86590798 -50.60617399 114.79405212 C-50.60489985 112.97215781 -50.60364237 111.15026348 -50.60240173 109.32836914 C-50.60147608 107.98390827 -50.60147608 107.98390827 -50.60053173 106.61228657 C-50.5970842 100.30897017 -50.60289428 94.00570157 -50.61231995 87.70239258 C-50.62356122 80.01627675 -50.62045526 72.33032424 -50.59919697 64.64422703 C-50.58871509 60.72583088 -50.5845155 56.80770662 -50.59779358 52.88931274 C-50.6097832 49.29669881 -50.60304821 45.7046067 -50.58188337 42.11203957 C-50.57535533 40.20894421 -50.58829449 38.30581213 -50.60211229 36.40275574 C-50.51455659 26.74396234 -48.85958592 17.56539595 -42.00463867 10.31420898 C-41.33303711 9.5781543 -40.66143555 8.84209961 -39.96948242 8.08374023 C-38.06713867 6.50170898 -38.06713867 6.50170898 -35.06713867 6.50170898 C-35.06713867 5.84170898 -35.06713867 5.18170898 -35.06713867 4.50170898 C-23.79968306 -0.82356196 -12.1798866 -0.05643708 0 0 Z M-35.1049881 23.06146431 C-36.6338639 28.5280794 -36.48571443 33.89617689 -36.46154785 39.54562378 C-36.46643891 40.88979067 -36.47262971 42.23395335 -36.48000574 43.57810891 C-36.49640133 47.26608431 -36.49408817 50.95384589 -36.48863077 54.64184499 C-36.4859601 58.62150649 -36.50049307 62.60111105 -36.51272583 66.58074951 C-36.53378039 74.37518114 -36.53832067 82.16953838 -36.53653795 89.96399508 C-36.53523034 96.29960541 -36.53903438 102.63519253 -36.54646301 108.97079849 C-36.54856221 110.79573921 -36.55065981 112.62067993 -36.55275583 114.44562066 C-36.55379936 115.35394446 -36.55484289 116.26226826 -36.55591804 117.19811703 C-36.57482049 134.37703794 -36.57377018 151.55591615 -36.56694871 168.73484315 C-36.56137314 184.44925003 -36.58219927 200.16349389 -36.61530918 215.87786268 C-36.64904522 232.01468239 -36.66421463 248.15142401 -36.65959215 264.28827965 C-36.65734739 273.34737645 -36.66259166 282.40632258 -36.68748474 291.46538925 C-36.70849674 299.17771044 -36.71209091 306.88979832 -36.69318515 314.60212909 C-36.68402663 318.53638582 -36.68288738 322.47020754 -36.7035408 326.40443039 C-36.72225047 330.00827363 -36.71774855 333.61132558 -36.69499499 337.21513869 C-36.6888308 339.13164327 -36.70720163 341.04817867 -36.72653151 342.96459568 C-36.6530429 350.10978107 -35.8221037 355.00590327 -31.06713867 360.50170898 C-27.38706803 363.95874504 -23.81740853 364.62549571 -18.87477303 364.63034344 C-18.04146088 364.63356788 -17.20814873 364.63679233 -16.3495847 364.64011449 C-15.43928309 364.63856588 -14.52898148 364.63701728 -13.59109497 364.63542175 C-12.6200252 364.63768731 -11.64895544 364.63995287 -10.64845932 364.64228708 C-7.38582611 364.64863078 -4.1232344 364.64779747 -0.8605957 364.64697266 C1.47505751 364.64996391 3.81071024 364.65336636 6.1463623 364.65715027 C12.49756806 364.66599773 18.84876035 364.66832869 25.19997168 364.66896605 C30.49832811 364.66991465 35.7966814 364.67359236 41.09503663 364.67713815 C52.87901636 364.68496193 64.66299025 364.68780651 76.44697236 364.6871328 C77.15403935 364.68709284 77.86110634 364.68705289 78.58959961 364.68701172 C79.29753006 364.68697084 80.0054605 364.68692996 80.73484339 364.68688784 C92.20863426 364.68648136 103.68239231 364.69605138 115.15617369 364.71015009 C126.93784093 364.72451286 138.71949216 364.73142033 150.50116837 364.73055631 C157.11549798 364.73030106 163.72979045 364.73316701 170.3441124 364.74373436 C176.56404674 364.75340004 182.78390834 364.75350501 189.00384521 364.74621773 C191.2879357 364.74517 193.57203068 364.7475459 195.85611343 364.75357819 C198.97177851 364.76127434 202.08719086 364.75666894 205.20285034 364.74894714 C206.56161059 364.75666249 206.56161059 364.75666249 207.94782054 364.7645337 C212.67921157 364.738585 216.48496581 364.33255975 220.93286133 362.50170898 C220.93286133 361.84170898 220.93286133 361.18170898 220.93286133 360.50170898 C221.59286133 360.50170898 222.25286133 360.50170898 222.93286133 360.50170898 C228.90945592 354.32455723 228.6416969 348.54596743 228.56777954 340.25488281 C228.57354493 338.90088511 228.58148886 337.54689523 228.59141576 336.19292164 C228.61225576 332.48232111 228.60198742 328.77236494 228.58648467 325.06176233 C228.57516322 321.05621672 228.59263778 317.05078124 228.60638428 313.04525757 C228.62861281 305.20244301 228.62381726 297.35986775 228.60932107 289.51704383 C228.5980273 283.14282248 228.59649853 276.76866818 228.60194016 270.3944397 C228.60270632 269.4870907 228.60347249 268.5797417 228.60426187 267.64489728 C228.6058605 265.80161212 228.60748157 263.95832698 228.60912482 262.11504185 C228.6233812 244.8321449 228.60699136 227.54938056 228.58012299 210.26650536 C228.55778431 195.43826463 228.56166447 180.61021962 228.5847168 165.78198242 C228.61147678 148.56077063 228.62200791 131.33967507 228.60665548 114.1184454 C228.60506274 112.28195637 228.60349089 110.44546733 228.60194016 108.60897827 C228.60116878 107.7054 228.6003974 106.80182173 228.59960265 105.87086231 C228.59528624 99.50458823 228.60257092 93.1383879 228.61433792 86.77212524 C228.62836366 79.01330112 228.6245615 71.25472989 228.5979342 63.49593472 C228.58479689 59.53750646 228.57964183 55.57949979 228.59617996 51.62107468 C228.61109491 47.99633092 228.60286714 44.37239896 228.5762922 40.74772871 C228.56807374 38.8176266 228.58437148 36.88746802 228.60157835 34.95742512 C228.53502933 29.07678835 228.46590995 24.41201086 224.45002222 19.85818231 C218.51665979 14.55324206 213.74488323 13.91612988 206.04031372 13.98031616 C205.06063027 13.97266507 204.08094682 13.96501397 203.071576 13.95713103 C199.79741597 13.93653653 196.52396171 13.94444228 193.24975586 13.95239258 C190.89881747 13.94369594 188.54788475 13.93332883 186.19696045 13.92141724 C179.81674495 13.8946401 173.43676642 13.89347954 167.05650568 13.89854383 C161.0541538 13.90095428 155.05183509 13.88852537 149.0494964 13.87767692 C136.43438535 13.85593943 123.81938132 13.86024438 111.20426427 13.87244661 C99.67437121 13.882783 88.1448162 13.86027726 76.61499001 13.82225017 C64.76425292 13.78346559 52.91367563 13.76698624 41.06287467 13.77449667 C34.41431651 13.77831671 27.76600989 13.77285358 21.11749649 13.7450676 C14.8644765 13.71991228 8.61213286 13.72379701 2.35912323 13.74988937 C0.06661373 13.75462044 -2.22594336 13.74915302 -4.51839828 13.73264313 C-7.65325613 13.71169747 -10.78584657 13.72791163 -13.92062378 13.75326538 C-15.27487955 13.73114253 -15.27487955 13.73114253 -16.65649402 13.70857275 C-24.5467686 13.84242499 -30.17947712 16.87449936 -35.1049881 23.06146431 Z " fill="#262626" transform="translate(154.067138671875,60.498291015625)"/>
<path d="M0 0 C2.01626372 -0.00678134 4.03252123 -0.01568736 6.04876709 -0.02655029 C11.50749737 -0.04928863 16.96575362 -0.04052971 22.42449188 -0.02465487 C28.14580024 -0.01196763 33.8670689 -0.02374383 39.58837891 -0.03158569 C49.19506086 -0.040674 58.80155041 -0.02871571 68.40820312 -0.00488281 C79.50383994 0.02232675 90.59901733 0.01351202 101.69464302 -0.01401484 C111.23293036 -0.03672812 120.77107965 -0.0398951 130.3093853 -0.02682149 C136.00103152 -0.01903924 141.69246201 -0.0179518 147.38409424 -0.03450394 C152.73591799 -0.04898159 158.08715126 -0.03886635 163.43891144 -0.01003265 C165.39922354 -0.0034395 167.35958562 -0.00528909 169.31987762 -0.01634598 C189.19965691 -0.11811108 189.19965691 -0.11811108 197.0274353 7.38907433 C203.31545695 13.97725885 205.32356774 21.72146255 205.35620117 30.67138672 C205.36258102 31.86322571 205.36896088 33.0550647 205.37553406 34.28302002 C205.37720329 36.20341095 205.37720329 36.20341095 205.37890625 38.16259766 C205.3821238 39.50152623 205.38548825 40.84045447 205.38899231 42.17938232 C205.3949695 44.98352879 205.39683375 47.7876445 205.39624023 50.59179688 C205.3961389 54.163485 205.40976804 57.73497307 205.42701244 61.30661392 C205.43820093 64.07264082 205.44015732 66.83862047 205.43963051 69.60466766 C205.44136597 71.55483986 205.45216563 73.5049973 205.46318054 75.45513916 C205.43766002 85.44598507 204.62787951 93.16043018 199.2109375 101.64697266 C198.5509375 101.64697266 197.8909375 101.64697266 197.2109375 101.64697266 C197.2109375 102.30697266 197.2109375 102.96697266 197.2109375 103.64697266 C191.47745521 109.57157102 183.8398204 110.75309776 175.92503357 110.99178958 C171.63581888 111.05728987 167.34816465 111.05031925 163.05859375 111.03515625 C161.1226268 111.03922631 159.18666217 111.04457062 157.2507019 111.05108643 C152.01519402 111.06471415 146.77986432 111.05948016 141.54435349 111.04994917 C136.05308315 111.042329 130.5618276 111.04940472 125.07055664 111.05410767 C115.85072097 111.05955835 106.63095751 111.05239162 97.41113281 111.03808594 C86.76718261 111.02176078 76.12340483 111.02704977 65.47945881 111.04356515 C56.32417232 111.05719958 47.16893759 111.05909011 38.01364422 111.05124915 C32.55286014 111.0465834 27.09215698 111.04591754 21.63137817 111.05585861 C16.49635919 111.06455448 11.36156151 111.05845856 6.22656631 111.04117584 C4.34729504 111.03722498 2.46800499 111.03832092 0.5887413 111.04496384 C-23.14901753 111.12110717 -23.14901753 111.12110717 -31.3203125 103.39306641 C-36.45616536 97.28741154 -37.90551375 90.79114247 -37.95019531 82.98583984 C-37.95516022 82.32510971 -37.96012512 81.66437958 -37.96524048 80.98362732 C-37.97981143 78.80369004 -37.98665638 76.62382558 -37.9921875 74.44384766 C-37.9979441 72.92173258 -38.00370176 71.39961751 -38.00946045 69.87750244 C-38.01995671 66.68656071 -38.02580804 63.49564406 -38.02929688 60.3046875 C-38.03477198 56.2317192 -38.05878449 52.15908681 -38.08726883 48.0862236 C-38.1059685 44.94107114 -38.11110474 41.79599832 -38.11263275 38.65079498 C-38.11564442 37.1502016 -38.12362234 35.64960912 -38.13681793 34.14907074 C-38.21981393 23.98378777 -38.12719189 15.04789282 -30.61019897 7.37296104 C-21.68100731 -1.08971122 -11.57583997 -0.0652927 0 0 Z M-21.7890625 17.64697266 C-24.52820807 21.85941676 -25.16650114 25.13095818 -25.17724609 30.10791016 C-25.18670258 31.36941895 -25.19615906 32.63092773 -25.2059021 33.93066406 C-25.20053188 35.29443682 -25.1943788 36.65820668 -25.1875 38.02197266 C-25.18952338 39.4339208 -25.19243703 40.84586792 -25.19619751 42.2578125 C-25.20060846 45.20989988 -25.19422983 48.16171403 -25.18017578 51.11376953 C-25.16308424 54.88652295 -25.17293208 58.658636 -25.19089317 62.43136597 C-25.20176452 65.3448565 -25.19826942 68.25819669 -25.1905098 71.17169189 C-25.18851703 72.56227699 -25.19093446 73.95287599 -25.19794846 75.34344482 C-25.20561736 77.29097206 -25.19184479 79.23854754 -25.17724609 81.18603516 C-25.17485931 82.29156738 -25.17247253 83.39709961 -25.17001343 84.53613281 C-24.61018533 89.10768106 -23.36723495 92.40895975 -19.68494987 95.29756451 C-15.97444979 97.02656098 -12.6766023 97.0602924 -8.66662598 97.02119446 C-7.85325476 97.02516886 -7.03988355 97.02914327 -6.20186472 97.03323811 C-3.47879923 97.04285579 -0.75625397 97.03104626 1.96679688 97.01928711 C3.91998997 97.02171525 5.87318182 97.02543478 7.82637024 97.03034973 C13.13002605 97.0397593 18.43349734 97.03033266 23.73713875 97.0170176 C29.28549352 97.00570582 34.83383916 97.0098104 40.38220215 97.01176453 C49.69998186 97.01264759 59.01768883 97.00156456 68.33544922 96.9831543 C79.11058231 96.96198652 89.88560883 96.95847674 100.6607585 96.96471626 C111.0228615 96.97040956 121.38492695 96.96476463 131.74702454 96.95354271 C136.15839838 96.9488963 140.56974925 96.94802306 144.98112488 96.95012856 C150.17512061 96.95201123 155.36900777 96.94390903 160.56297874 96.92806816 C162.47014606 96.92382314 164.37732439 96.92297622 166.2844944 96.92575836 C168.88594935 96.92897776 171.48707943 96.91990439 174.08850098 96.90766907 C174.84482488 96.91144839 175.60114879 96.91522771 176.3803916 96.91912156 C180.41877054 96.88547822 183.6312026 96.58059353 187.2109375 94.64697266 C190.7448531 90.44392532 191.71475765 87.45778693 191.74438477 82.01831055 C191.7602211 80.71998795 191.77605743 79.42166534 191.79237366 78.08399963 C191.7885317 76.67920571 191.78349238 75.27441463 191.77734375 73.86962891 C191.78258443 72.41523339 191.78886254 70.96084128 191.79612732 69.50645447 C191.80651194 66.4643449 191.80199899 63.42270364 191.78735352 60.38061523 C191.77017413 56.49553291 191.79365818 52.61193079 191.82884312 48.72701359 C191.85087893 45.72507559 191.84936084 42.72348838 191.8410778 39.72149467 C191.84026153 38.28985407 191.84706282 36.85818687 191.86184883 35.42662239 C192.15504867 26.45568601 192.15504867 26.45568601 188.92163086 18.34008789 C184.83359776 14.2785646 182.35536064 13.42419901 176.54030812 13.37016165 C175.4083126 13.37480746 175.4083126 13.37480746 174.25344849 13.37954712 C173.44572081 13.37501601 172.63799314 13.37048489 171.80578887 13.36581647 C169.09589114 13.35314374 166.38619364 13.35479469 163.67626953 13.35644531 C161.73469788 13.35046187 159.79312862 13.34365675 157.8515625 13.33609009 C152.57469259 13.31840448 147.29788753 13.31373364 142.02099085 13.31245852 C137.61734705 13.31056042 133.21371839 13.30320394 128.81008041 13.29611433 C118.42139347 13.27982316 108.03274121 13.27494605 97.64404297 13.27636719 C86.9239962 13.27756893 76.20415066 13.25646212 65.48415482 13.22487986 C56.28319765 13.19873781 47.08230628 13.18799902 37.88131225 13.18927801 C32.38475275 13.18978823 26.88837206 13.1840714 21.39184952 13.16292191 C16.22241905 13.14357439 11.0533386 13.14339124 5.88389587 13.15795517 C3.98681503 13.16004867 2.08971248 13.15531023 0.19266891 13.14323425 C-2.39783539 13.12781222 -4.98712824 13.1370693 -7.5776062 13.15249634 C-8.32780844 13.14220921 -9.07801067 13.13192209 -9.85094631 13.12132323 C-14.95894125 13.18851688 -17.86616827 14.41065018 -21.7890625 17.64697266 Z " fill="#222222" transform="translate(166.7890625,83.35302734375)"/>
<path d="M0 0 C0.77159454 -0.00428513 1.54318909 -0.00857025 2.33816528 -0.01298523 C3.96355208 -0.01870372 5.58896445 -0.01924717 7.21435547 -0.01489258 C9.68111549 -0.01173691 12.14666953 -0.03520666 14.61328125 -0.06054688 C16.20051934 -0.0628208 17.78776061 -0.06352293 19.375 -0.0625 C20.10234344 -0.07170975 20.82968689 -0.08091949 21.57907104 -0.09040833 C28.08897382 -0.03254564 33.5476669 1.3816583 38.6328125 5.67578125 C43.40398352 11.40118647 44.2638001 15.11264004 44.18359375 22.3984375 C44.18434151 23.70535805 44.18434151 23.70535805 44.18510437 25.03868103 C44.18277 26.87517587 44.1730791 28.71167427 44.15649414 30.5480957 C44.13286345 33.35722465 44.13594279 36.165406 44.14257812 38.97460938 C44.13700212 40.7617244 44.12989273 42.54883544 44.12109375 44.3359375 C44.12200516 45.17455826 44.12291656 46.01317902 44.12385559 46.87721252 C44.11432358 47.66160202 44.10479156 48.44599152 44.0949707 49.25415039 C44.08805962 50.28409874 44.08805962 50.28409874 44.08100891 51.33485413 C43.77483883 53.64370087 42.95571717 55.2824858 41.8203125 57.30078125 C41.1603125 57.30078125 40.5003125 57.30078125 39.8203125 57.30078125 C39.5728125 58.07881104 39.3253125 58.85684082 39.0703125 59.65844727 C37.62321544 62.71741825 36.89177809 63.3033468 33.8203125 64.578125 C26.79509322 67.08010234 19.60456442 66.93646487 12.234375 66.87719727 C9.82412152 66.86330321 7.4177416 66.89752377 5.0078125 66.93554688 C-3.59861581 66.97846797 -11.01463496 66.72124852 -18.1796875 61.30078125 C-24.66209876 53.68394802 -24.55244079 45.23185931 -24.55029297 35.72558594 C-24.55464837 33.5701485 -24.59096828 31.41679244 -24.62890625 29.26171875 C-24.69797027 20.85896961 -24.48573797 12.4161249 -18.80273438 5.66503906 C-13.30357607 0.65700506 -7.13759296 -0.00889435 0 0 Z M-9.12915039 15.37646484 C-10.77465356 18.39060754 -10.56928909 21.07846223 -10.578125 24.48828125 C-10.58099518 25.18719482 -10.58386536 25.8861084 -10.58682251 26.60620117 C-10.58886175 28.08220226 -10.58334153 29.55823046 -10.57080078 31.03417969 C-10.5547433 33.29293263 -10.5706522 35.54989643 -10.58984375 37.80859375 C-10.58786129 39.24349353 -10.58401756 40.6783922 -10.578125 42.11328125 C-10.57474121 43.41910156 -10.57135742 44.72492188 -10.56787109 46.0703125 C-10.3933178 49.18450139 -10.3933178 49.18450139 -9.14501953 51.22290039 C-6.02012602 52.9367395 -2.8110668 52.74814832 0.6640625 52.734375 C1.81231506 52.74223778 1.81231506 52.74223778 2.98376465 52.7502594 C4.60098051 52.75667807 6.21824306 52.75534455 7.83544922 52.74682617 C10.31171597 52.73831081 12.78567969 52.76708403 15.26171875 52.79882812 C16.83333264 52.80044011 18.40495062 52.79986266 19.9765625 52.796875 C21.08759338 52.81372597 21.08759338 52.81372597 22.22106934 52.83091736 C25.33511904 52.78863009 27.31956255 52.70618881 29.78344727 50.71142578 C31.18459149 47.45385618 31.22644845 44.7796087 31.25390625 41.234375 C31.2591481 40.55907242 31.26438995 39.88376984 31.26979065 39.18800354 C31.27619582 37.76507947 31.27489329 36.34210234 31.26635742 34.91918945 C31.2578247 32.74139593 31.28665842 30.56620788 31.31835938 28.38867188 C31.31997102 27.00390703 31.31939455 25.61913755 31.31640625 24.234375 C31.31825928 22.97681396 31.3201123 21.71925293 31.32202148 20.42358398 C31.08745849 17.3057367 31.08745849 17.3057367 29.27197266 15.39233398 C25.8914743 13.88723459 22.73066322 13.87142934 19.09765625 13.90234375 C18.35576553 13.89947357 17.61387482 13.89660339 16.84950256 13.89364624 C15.28532139 13.89160945 13.72111453 13.89711242 12.15698242 13.90966797 C9.76228022 13.92575124 7.36925979 13.90979597 4.97460938 13.890625 C3.45312128 13.89260706 1.93163422 13.89644996 0.41015625 13.90234375 C-0.30552017 13.89627106 -1.02119659 13.89019836 -1.75856018 13.88394165 C-4.51544585 13.9229945 -6.68849884 14.02975091 -9.12915039 15.37646484 Z " fill="#252525" transform="translate(322.1796875,204.69921875)"/>
<path d="M0 0 C1.2707563 -0.00855011 1.2707563 -0.00855011 2.56718445 -0.01727295 C4.36012526 -0.02671702 6.15308338 -0.03325458 7.94604492 -0.03710938 C10.67853383 -0.04680163 13.41026613 -0.07782462 16.14257812 -0.109375 C17.8867143 -0.11590678 19.63085583 -0.12115657 21.375 -0.125 C22.18769852 -0.1373468 23.00039703 -0.1496936 23.83772278 -0.16241455 C30.16684219 -0.13776816 34.23626706 1.30272583 39.07421875 5.578125 C43.9635754 11.12820553 44.86144071 14.95647785 44.890625 22.16015625 C44.9006102 23.02194992 44.9105954 23.88374359 44.92088318 24.77165222 C44.93603611 26.59129045 44.94310985 28.41101163 44.94262695 30.23071289 C44.94917472 32.99702381 45.00364203 35.75971647 45.06054688 38.52539062 C45.06935299 40.29946699 45.0753045 42.07356027 45.078125 43.84765625 C45.09968155 44.66563187 45.1212381 45.48360748 45.14344788 46.32637024 C45.06761112 52.76877066 42.82749655 56.59670187 38.38671875 61.203125 C32.98367331 65.69915502 28.08901337 66.36857403 21.24609375 66.40625 C20.44568665 66.41195007 19.64527954 66.41765015 18.82061768 66.42352295 C17.12603067 66.43296642 15.43142534 66.43950434 13.73681641 66.44335938 C11.16014992 66.453037 8.58429089 66.48405414 6.0078125 66.515625 C4.35807763 66.52215837 2.70833708 66.52740753 1.05859375 66.53125 C0.29480408 66.5435968 -0.4689856 66.5559436 -1.25592041 66.56866455 C-7.57289592 66.54271464 -11.82107299 64.8265019 -17.30078125 61.640625 C-24.20663814 54.36147855 -24.24920717 44.84242638 -24.13476562 35.32617188 C-24.11330901 33.20586839 -24.13465892 31.08895123 -24.16015625 28.96875 C-24.17983941 20.14404747 -23.73657992 11.76961892 -17.578125 4.94921875 C-16.90910156 4.51738281 -16.24007813 4.08554687 -15.55078125 3.640625 C-14.87917969 3.18558594 -14.20757812 2.73054688 -13.515625 2.26171875 C-9.13573735 -0.17554933 -4.86712842 0.0252631 0 0 Z M-8.03759766 14.79248047 C-10.17899071 18.06860614 -10.0998007 20.33588596 -10.07421875 24.234375 C-10.07330231 24.90730591 -10.07238586 25.58023682 -10.07144165 26.27355957 C-10.06541578 27.69237345 -10.04969984 29.1111752 -10.02490234 30.52978516 C-9.98839933 32.6961172 -9.98388315 34.86073624 -9.984375 37.02734375 C-10.24941762 44.94135635 -10.24941762 44.94135635 -7.61328125 52.203125 C-2.54131776 52.30197145 2.53008575 52.37458153 7.6027832 52.42285156 C9.32846848 52.44297239 11.05408553 52.47027248 12.77954102 52.50488281 C15.25944845 52.55338258 17.73845503 52.57608804 20.21875 52.59375 C21.3767083 52.62471771 21.3767083 52.62471771 22.55805969 52.65631104 C25.75673423 52.65765228 27.83096587 52.64896822 30.37670898 50.60668945 C31.72362826 47.4013667 31.74154533 44.83196881 31.71484375 41.35546875 C31.71297058 40.70236221 31.71109741 40.04925568 31.70916748 39.37635803 C31.70246519 38.00044624 31.68858683 36.62455292 31.66796875 35.2487793 C31.63677157 33.14418803 31.62699024 31.04034667 31.62109375 28.93554688 C31.73746632 21.96762302 31.73746632 21.96762302 30.38671875 15.203125 C25.47257295 11.64126386 18.44618884 12.83124243 12.6328125 12.83251953 C10.39376174 12.82813878 8.15667201 12.79177535 5.91796875 12.75390625 C4.49089213 12.74803886 3.06380619 12.74406895 1.63671875 12.7421875 C0.3425 12.73396973 -0.95171875 12.72575195 -2.28515625 12.71728516 C-5.62255409 12.96557259 -5.62255409 12.96557259 -8.03759766 14.79248047 Z " fill="#232323" transform="translate(321.61328125,277.796875)"/>
<path d="M0 0 C1.13046501 -0.00855011 1.13046501 -0.00855011 2.2837677 -0.01727295 C3.88000082 -0.02671574 5.47625337 -0.03325407 7.07250977 -0.03710938 C9.49335676 -0.04677054 11.91333817 -0.07778096 14.33398438 -0.109375 C15.88931791 -0.11591014 17.44465748 -0.1211586 19 -0.125 C19.71488083 -0.1373468 20.42976166 -0.1496936 21.16630554 -0.16241455 C27.54930712 -0.13466986 32.62886729 1.58122662 38.14453125 4.890625 C43.12881794 10.15972807 43.78851131 16.69134524 43.73046875 23.61328125 C43.73333893 24.38441757 43.73620911 25.15555389 43.73916626 25.95005798 C43.74119312 27.56770571 43.73576055 29.18537872 43.72314453 30.80297852 C43.70704781 33.26309478 43.72305065 35.72157409 43.7421875 38.18164062 C43.74020525 39.76302442 43.73636195 41.3444072 43.73046875 42.92578125 C43.73654144 43.65201187 43.74261414 44.37824249 43.74887085 45.1264801 C43.66755316 51.09770125 41.9529472 54.96129311 39.33203125 60.203125 C38.67203125 60.203125 38.01203125 60.203125 37.33203125 60.203125 C37.33203125 60.863125 37.33203125 61.523125 37.33203125 62.203125 C29.390699 66.83021338 21.751985 66.81866173 12.8215332 66.72460938 C10.40278504 66.70319806 7.9870162 66.72446032 5.56835938 66.75 C-3.66685187 66.77282501 -12.11631079 66.76695107 -19.57104492 60.63867188 C-25.49233746 53.79651953 -24.57023796 44.45173865 -24.45019531 35.92871094 C-24.41802931 33.20824657 -24.44996741 30.49372023 -24.48828125 27.7734375 C-24.52586199 12.15276499 -24.52586199 12.15276499 -19.31420898 5.6640625 C-16.5954734 3.25135098 -14.14999145 2.25430167 -10.66796875 1.203125 C-7.06690786 0.00277137 -3.75050776 0.02198504 0 0 Z M-9.63330078 15.27880859 C-11.25550228 18.29584309 -11.0575904 20.9885458 -11.06640625 24.390625 C-11.06927643 25.08953857 -11.07214661 25.78845215 -11.07510376 26.50854492 C-11.077143 27.98454601 -11.07162278 29.46057421 -11.05908203 30.93652344 C-11.04302455 33.19527638 -11.05893345 35.45224018 -11.078125 37.7109375 C-11.07614254 39.14583728 -11.07229881 40.58073595 -11.06640625 42.015625 C-11.06302246 43.32144531 -11.05963867 44.62726563 -11.05615234 45.97265625 C-10.88159905 49.08684514 -10.88159905 49.08684514 -9.63330078 51.12524414 C-6.50840727 52.83908325 -3.29934805 52.65049207 0.17578125 52.63671875 C1.32403381 52.64458153 1.32403381 52.64458153 2.4954834 52.65260315 C4.11269926 52.65902182 5.72996181 52.6576883 7.34716797 52.64916992 C9.82343472 52.64065456 12.29739844 52.66942778 14.7734375 52.70117188 C16.34505139 52.70278386 17.91666937 52.70220641 19.48828125 52.69921875 C20.59931213 52.71606972 20.59931213 52.71606972 21.73278809 52.73326111 C24.84749818 52.69096487 26.83202123 52.60748093 29.29736328 50.61376953 C30.6974604 47.35172163 30.72092848 44.68547196 30.73046875 41.13671875 C30.73333893 40.46141617 30.73620911 39.78611359 30.73916626 39.09034729 C30.74120196 37.6674007 30.73570657 36.2444258 30.72314453 34.8215332 C30.70705662 32.64405881 30.72302052 30.4684332 30.7421875 28.29101562 C30.74020547 26.90624591 30.73636262 25.52147734 30.73046875 24.13671875 C30.72708496 22.87915771 30.72370117 21.62159668 30.72021484 20.32592773 C30.53736966 17.30514655 30.53736966 17.30514655 29.29736328 15.29467773 C26.17495111 13.56047838 22.96766129 13.77616101 19.48828125 13.8046875 C18.72277954 13.80181732 17.95727783 13.79894714 17.1685791 13.79598999 C15.55134338 13.79395 13.93408295 13.79947537 12.31689453 13.81201172 C9.84091034 13.82806742 7.3665584 13.81216203 4.890625 13.79296875 C3.31900681 13.79495119 1.74738964 13.7987949 0.17578125 13.8046875 C-0.56490601 13.79861481 -1.30559326 13.79254211 -2.06872559 13.7862854 C-4.88313474 13.82481141 -7.13533496 13.91159898 -9.63330078 15.27880859 Z " fill="#222222" transform="translate(237.66796875,204.796875)"/>
<path d="M0 0 C0.74419693 -0.00287018 1.48839386 -0.00574036 2.25514221 -0.00869751 C3.81731942 -0.01072414 5.37952282 -0.00529315 6.94165039 0.00732422 C9.30739224 0.02337634 11.67142021 0.00744061 14.03710938 -0.01171875 C31.82024244 -0.03984123 31.82024244 -0.03984123 38 5.1953125 C38.43441406 5.83984375 38.86882812 6.484375 39.31640625 7.1484375 C39.99509766 8.09976563 39.99509766 8.09976563 40.6875 9.0703125 C43.3890072 14.3493233 44.13326694 19.52812242 44.14453125 25.3984375 C44.14839844 27.3475 44.14839844 27.3475 44.15234375 29.3359375 C44.1481543 30.00367188 44.14396484 30.67140625 44.13964844 31.359375 C44.12893209 33.39353244 44.13958135 35.426807 44.15234375 37.4609375 C44.14976562 38.7603125 44.1471875 40.0596875 44.14453125 41.3984375 C44.14227539 42.5740625 44.14001953 43.7496875 44.13769531 44.9609375 C43.61627191 51.88701439 41.65825428 57.41104133 36.87890625 62.3984375 C29.58899268 67.76872564 20.4337015 67.00746957 11.83129883 66.91992188 C9.31819493 66.89845278 6.80793946 66.91980212 4.29492188 66.9453125 C2.67577503 66.94266944 1.05662994 66.93754489 -0.5625 66.9296875 C-1.30230606 66.93778442 -2.04211212 66.94588135 -2.80433655 66.95422363 C-9.69564697 66.83203503 -14.72171619 64.380532 -19.99609375 60.0234375 C-24.13495103 54.91073144 -24.42978365 49.55739647 -24.421875 43.18359375 C-24.42830269 42.02264442 -24.42830269 42.02264442 -24.43486023 40.83824158 C-24.44057814 39.20865859 -24.44112261 37.57905009 -24.43676758 35.94946289 C-24.4336075 33.4717204 -24.45709764 30.99517336 -24.48242188 28.51757812 C-24.48469531 26.92708482 -24.48539816 25.33658835 -24.484375 23.74609375 C-24.49358475 23.01358902 -24.50279449 22.28108429 -24.51228333 21.52638245 C-24.45627919 15.22489878 -22.92552875 10.66687008 -18.93359375 5.6484375 C-13.24353456 1.09639015 -7.21506761 -0.06294714 0 0 Z M-10.08422852 15.49438477 C-11.68490305 18.43379157 -11.51058062 21.00559459 -11.51953125 24.33203125 C-11.52240143 25.00637711 -11.52527161 25.68072296 -11.52822876 26.37550354 C-11.53026798 27.80023031 -11.52474788 29.22498517 -11.51220703 30.6496582 C-11.4961742 32.82502254 -11.51204526 34.99852215 -11.53125 37.17382812 C-11.52926705 38.55989992 -11.5254223 39.94597056 -11.51953125 41.33203125 C-11.51614746 42.59072021 -11.51276367 43.84940918 -11.50927734 45.14624023 C-11.0856125 48.695699 -10.9004931 50.14201181 -8.12109375 52.3984375 C-5.3839757 52.81680776 -3.05212581 52.98326716 -0.3125 52.96484375 C0.45063004 52.97104233 1.21376007 52.97724091 2.00001526 52.98362732 C3.61303431 52.99072678 5.22612662 52.98754912 6.83911133 52.97485352 C9.3049243 52.961002 11.76693058 52.99503 14.23242188 53.03320312 C15.80078218 53.0341545 17.36914722 53.0322945 18.9375 53.02734375 C19.67302597 53.04060196 20.40855194 53.05386017 21.16636658 53.06752014 C24.80234866 53.00154728 26.56368082 52.67192033 29.34204102 50.26147461 C31.14508376 46.90257353 31.39477983 44.76110898 31.41015625 40.9609375 C31.4153125 39.73632812 31.42046875 38.51171875 31.42578125 37.25 C31.4103125 35.97898437 31.39484375 34.70796875 31.37890625 33.3984375 C31.394375 32.12742188 31.40984375 30.85640625 31.42578125 29.546875 C31.41804688 27.70996094 31.41804688 27.70996094 31.41015625 25.8359375 C31.40564453 24.72089844 31.40113281 23.60585937 31.39648438 22.45703125 C30.74024413 18.57902287 29.85669293 16.97924498 26.87890625 14.3984375 C24.02725448 13.91370479 21.7816843 13.74128912 18.9375 13.8046875 C17.79136986 13.80462708 17.79136986 13.80462708 16.62208557 13.80456543 C15.01074982 13.80991566 13.39941431 13.82747766 11.78833008 13.85644531 C9.32096781 13.89836001 6.85633066 13.89750897 4.38867188 13.890625 C2.82159561 13.90111602 1.2545334 13.91405367 -0.3125 13.9296875 C-1.0500502 13.92988892 -1.7876004 13.93009033 -2.54750061 13.93029785 C-5.35859945 13.995351 -7.60089174 14.1080275 -10.08422852 15.49438477 Z " fill="#212121" transform="translate(153.12109375,204.6015625)"/>
<path d="M0 0 C1.86503611 -0.01652338 3.73000984 -0.04376556 5.59472656 -0.08203125 C8.29598548 -0.13712476 10.99576277 -0.15872473 13.69750977 -0.17333984 C14.52175949 -0.19600922 15.34600922 -0.21867859 16.19523621 -0.24203491 C22.30737056 -0.21999966 26.40527462 1.44663568 31.12329102 5.35009766 C38.05345831 12.97987538 37.30978167 21.32949186 37.30859375 31.2355957 C37.31078131 33.27853202 37.32897837 35.32092836 37.34790039 37.36376953 C37.34983398 38.66765625 37.35176758 39.97154297 37.35375977 41.31494141 C37.35786865 42.49693115 37.36197754 43.6789209 37.36621094 44.89672852 C36.97027403 50.52539947 35.65118505 55.88143188 32.12329102 60.35009766 C25.83565979 65.0066279 20.83099143 66.51330198 13.01782227 66.58837891 C12.21978683 66.59645065 11.4217514 66.6045224 10.59953308 66.61283875 C8.90915082 66.62666518 7.2187408 66.63739378 5.52832031 66.64526367 C3.80883541 66.65676037 2.08938554 66.67717558 0.37011719 66.70678711 C-2.1225596 66.74971055 -4.61417603 66.76566829 -7.10717773 66.77587891 C-7.86580612 66.79338699 -8.62443451 66.81089508 -9.40605164 66.82893372 C-15.18242809 66.80579938 -18.86696407 65.21407447 -23.87670898 62.35009766 C-23.87670898 61.69009766 -23.87670898 61.03009766 -23.87670898 60.35009766 C-24.77389648 60.07166016 -24.77389648 60.07166016 -25.68920898 59.78759766 C-28.84800874 57.71181496 -29.80720642 54.8480443 -30.87670898 51.35009766 C-31.15411033 48.51135726 -31.29881587 45.90336472 -31.27514648 43.07275391 C-31.27801666 42.30257431 -31.28088684 41.53239471 -31.28384399 40.73887634 C-31.28587393 39.11944844 -31.28041942 37.49999541 -31.26782227 35.88061523 C-31.25177436 33.42261029 -31.26769511 30.9662548 -31.28686523 28.50830078 C-31.28488218 26.92561491 -31.28103722 25.34293006 -31.27514648 23.76025391 C-31.28121918 23.03604752 -31.28729187 22.31184113 -31.29354858 21.56568909 C-31.21282219 15.61097859 -30.1576558 9.77360365 -25.93920898 5.29150391 C-25.25858398 4.83646484 -24.57795898 4.38142578 -23.87670898 3.91259766 C-23.19608398 3.43951172 -22.51545898 2.96642578 -21.81420898 2.47900391 C-15.53645614 -1.17879966 -7.07624207 0.04590531 0 0 Z M-15.87670898 14.35009766 C-19.2869243 19.12596635 -18.21019496 25.6314288 -18.19238281 31.24951172 C-18.18921901 33.34346389 -18.21271311 35.43600708 -18.23803711 37.52978516 C-18.24030999 38.86572088 -18.24101365 40.20166039 -18.23999023 41.53759766 C-18.24297119 42.74802734 -18.24595215 43.95845703 -18.24902344 45.20556641 C-17.83453633 48.70628374 -17.6104497 50.11114703 -14.87670898 52.35009766 C-12.13959093 52.76846792 -9.80774105 52.93492731 -7.06811523 52.91650391 C-6.3049852 52.92270248 -5.54185516 52.92890106 -4.75559998 52.93528748 C-3.14258092 52.94238693 -1.52948862 52.93920928 0.08349609 52.92651367 C2.54930906 52.91266216 5.01131534 52.94669016 7.47680664 52.98486328 C9.04516694 52.98581466 10.61353199 52.98395465 12.18188477 52.97900391 C12.91741074 52.99226212 13.65293671 53.00552032 14.41075134 53.0191803 C18.04725005 52.95319806 19.80887157 52.6226381 22.58862305 50.21313477 C24.39299173 46.84695093 24.62571106 44.71937796 24.61938477 40.91259766 C24.6200293 39.68798828 24.62067383 38.46337891 24.62133789 37.20166016 C24.59136719 35.29513672 24.59136719 35.29513672 24.56079102 33.35009766 C24.56788086 32.07908203 24.5749707 30.80806641 24.58227539 29.49853516 C24.66034299 21.41686101 24.66034299 21.41686101 21.12329102 14.35009766 C18.1254639 12.8511841 15.37322312 13.22015843 12.03344727 13.21728516 C11.33311874 13.21632843 10.63279022 13.2153717 9.91123962 13.21438599 C8.42926951 13.21370519 6.94729642 13.21555247 5.46533203 13.21972656 C3.19825521 13.22506829 0.93137722 13.21978236 -1.33569336 13.21337891 C-2.77514692 13.21403986 -4.21460036 13.21532139 -5.65405273 13.21728516 C-7.62233032 13.21897705 -7.62233032 13.21897705 -9.63037109 13.22070312 C-12.88963843 13.19985544 -12.88963843 13.19985544 -15.87670898 14.35009766 Z " fill="#1F1F1F" transform="translate(159.876708984375,277.64990234375)"/>
<path d="M0 0 C0.86370712 -0.00145523 1.72741425 -0.00291046 2.61729431 -0.00440979 C4.43345533 -0.00275796 6.24963139 0.00872261 8.06567383 0.02954102 C10.83540616 0.05854728 13.60322714 0.05012475 16.37304688 0.03710938 C18.14454049 0.04334636 19.9160281 0.05173699 21.6875 0.0625 C22.50952408 0.05956436 23.33154816 0.05662872 24.17848206 0.05360413 C31.26311485 0.16914112 36.69255912 2.41130912 41.77734375 7.49609375 C44.29053321 13.1260175 45.23598177 17.71117545 45.2109375 23.8359375 C45.21617935 24.60233047 45.2214212 25.36872345 45.2268219 26.15834045 C45.23320048 27.76757606 45.23195956 29.37685856 45.22338867 30.98608398 C45.21487542 33.42452392 45.24370004 35.8606185 45.27539062 38.29882812 C45.34965404 54.18063339 45.34965404 54.18063339 40.77734375 60.49609375 C38.7421875 62.43359375 38.7421875 62.43359375 36.71484375 63.49609375 C36.04324219 63.86734375 35.37164062 64.23859375 34.6796875 64.62109375 C30.33185471 66.62091828 26.3659731 66.6892693 21.671875 66.734375 C20.87383957 66.74244675 20.07580414 66.75051849 19.25358582 66.75883484 C17.56320355 66.77266127 15.87279354 66.78338987 14.18237305 66.79125977 C12.46288814 66.80275646 10.74343827 66.82317167 9.02416992 66.8527832 C6.53149313 66.89570664 4.0398767 66.91166438 1.546875 66.921875 C0.78824661 66.93938309 0.02961823 66.95689117 -0.7519989 66.97492981 C-7.77815609 66.94679012 -12.82478207 64.58120174 -18.09765625 59.99609375 C-21.02088999 56.55699523 -22.45589546 53.93839865 -22.54492188 49.40527344 C-22.56413696 48.61054626 -22.58335205 47.81581909 -22.60314941 46.99700928 C-22.61164917 46.1459259 -22.62014893 45.29484253 -22.62890625 44.41796875 C-22.6403064 43.53256409 -22.65170654 42.64715942 -22.66345215 41.73492432 C-22.68232371 39.86223101 -22.69540886 37.98947171 -22.703125 36.11669922 C-22.72249829 33.26930972 -22.78453849 30.42483456 -22.84765625 27.578125 C-22.86072205 25.7539233 -22.87122075 23.92970105 -22.87890625 22.10546875 C-22.90359985 21.2624823 -22.92829346 20.41949585 -22.95373535 19.55096436 C-22.91189382 13.92299713 -21.63070067 10.50655762 -17.96434021 6.20320129 C-12.47557108 0.82339681 -7.52566308 -0.1031014 0 0 Z M-7.65844727 15.08984375 C-9.7834338 18.35874765 -9.72449785 20.64279387 -9.71875 24.52734375 C-9.72020523 25.20027466 -9.72166046 25.87320557 -9.72315979 26.56652832 C-9.72150425 27.98531435 -9.70998128 29.40411898 -9.68920898 30.82275391 C-9.66024592 32.98938592 -9.66860574 35.15356999 -9.68164062 37.3203125 C-9.67540267 38.70183476 -9.66701127 40.08334932 -9.65625 41.46484375 C-9.64650146 42.71716797 -9.63675293 43.96949219 -9.62670898 45.25976562 C-9.18546287 48.79400038 -8.99267086 50.24728696 -6.22265625 52.49609375 C-3.47355613 52.90194976 -1.12859325 53.05740233 1.62109375 53.02734375 C2.76934631 53.03308411 2.76934631 53.03308411 3.9407959 53.03894043 C5.55803748 53.04166042 7.17532298 53.03429293 8.79248047 53.01757812 C11.26890068 52.99616675 13.74242009 53.01737361 16.21875 53.04296875 C17.79037099 53.04032549 19.36199018 53.03520053 20.93359375 53.02734375 C22.04462463 53.03948914 22.04462463 53.03948914 23.17810059 53.05187988 C26.29162266 52.99505252 28.28015859 52.89972822 30.74047852 50.90234375 C32.13902947 47.65673081 32.18343249 44.99821442 32.2109375 41.46484375 C32.21617935 40.79191284 32.2214212 40.11898193 32.2268219 39.42565918 C32.23322785 38.00693132 32.23192352 36.58815025 32.22338867 35.16943359 C32.2148694 33.00261728 32.24366692 30.83843162 32.27539062 28.671875 C32.27700267 27.29036537 32.27642505 25.90885109 32.2734375 24.52734375 C32.27529053 23.27501953 32.27714355 22.02269531 32.27905273 20.73242188 C32.00155743 17.48104556 32.00155743 17.48104556 30.21313477 15.08984375 C26.946687 12.95259097 24.08907204 12.92039355 20.30859375 12.96484375 C19.59127075 12.96101685 18.87394775 12.95718994 18.1348877 12.95324707 C16.62197461 12.95053148 15.1090143 12.9578682 13.59619141 12.97460938 C11.28441399 12.99602824 8.97574362 12.97480024 6.6640625 12.94921875 C5.19139941 12.95186209 3.71873825 12.95698722 2.24609375 12.96484375 C1.55745239 12.95674683 0.86881104 12.9486499 0.15930176 12.94030762 C-3.01985307 13.00221737 -4.97907398 13.33671667 -7.65844727 15.08984375 Z " fill="#202020" transform="translate(236.22265625,277.50390625)"/>
<path d="M0 0 C1.22185753 -0.00430527 1.22185753 -0.00430527 2.46839905 -0.00869751 C4.18198344 -0.01072842 5.89559153 -0.00526703 7.60913086 0.00732422 C10.21196098 0.02337156 12.81323364 0.00745369 15.41601562 -0.01171875 C17.08984713 -0.00973574 18.76367768 -0.00589087 20.4375 0 C21.20545395 -0.00607269 21.9734079 -0.01214539 22.76463318 -0.0184021 C28.84417126 0.05954229 34.78778319 1.0053191 39.34375 5.37109375 C40.02630859 6.40556641 40.02630859 6.40556641 40.72265625 7.4609375 C41.19574219 8.15316406 41.66882813 8.84539062 42.15625 9.55859375 C45.74365557 15.4051959 44.6305721 23.01011384 44.69018555 29.7175293 C44.71168665 31.53412986 44.74569527 33.35062906 44.79272461 35.16674805 C45.25966242 53.3739992 45.25966242 53.3739992 39.84472656 59.93530273 C34.32160074 65.11690779 28.99082546 65.56361015 21.70703125 65.6015625 C20.86223206 65.60726257 20.01743286 65.61296265 19.14703369 65.61883545 C17.35828908 65.6282805 15.56952711 65.63481747 13.78076172 65.63867188 C11.05925641 65.64835178 8.33851478 65.67936872 5.6171875 65.7109375 C3.87630655 65.71747056 2.13542022 65.72271984 0.39453125 65.7265625 C-0.41300598 65.7389093 -1.22054321 65.7512561 -2.05255127 65.76397705 C-8.05467481 65.74060173 -12.89835416 64.75789024 -17.640625 60.78515625 C-18.09824219 60.22441406 -18.55585938 59.66367187 -19.02734375 59.0859375 C-19.49785156 58.53292969 -19.96835937 57.97992188 -20.453125 57.41015625 C-24.6408399 50.73314953 -24.05348947 43.2872957 -24.03051758 35.71337891 C-24.02736235 33.536272 -24.05083575 31.36053267 -24.07617188 29.18359375 C-24.11595029 20.54492455 -23.78118678 13.30865144 -18.46484375 6.0859375 C-12.9282258 0.67515177 -7.40487137 -0.05840102 0 0 Z M-8.15063477 14.97631836 C-10.30839497 18.31752937 -10.2165819 20.72195917 -10.2109375 24.68359375 C-10.21239273 25.38109238 -10.21384796 26.078591 -10.21534729 26.79722595 C-10.21369164 28.26728506 -10.20216752 29.7373621 -10.18139648 31.20727539 C-10.15239076 33.45729065 -10.16080175 35.70495553 -10.17382812 37.95507812 C-10.16759167 39.38542811 -10.15920145 40.81577067 -10.1484375 42.24609375 C-10.13868896 43.54554932 -10.12894043 44.84500488 -10.11889648 46.18383789 C-9.92894945 49.28704564 -9.92894945 49.28704564 -8.66210938 51.31835938 C-5.61447357 53.00877322 -2.52159848 52.84596378 0.875 52.83203125 C1.61593399 52.8372731 2.35686798 52.84251495 3.12025452 52.84791565 C4.68619535 52.85433433 6.25218441 52.85300078 7.81811523 52.84448242 C10.21100017 52.83597892 12.60149202 52.86472028 14.99414062 52.89648438 C16.51692637 52.89809672 18.03971633 52.89751821 19.5625 52.89453125 C20.63297829 52.91138222 20.63297829 52.91138222 21.7250824 52.92857361 C24.96434497 52.88326805 26.99702721 52.58565102 29.73461914 50.80688477 C31.83740674 47.54062754 31.8024581 45.23879567 31.81640625 41.3671875 C31.82023315 40.69425659 31.82406006 40.02132568 31.82800293 39.32800293 C31.83071755 37.9092458 31.82338759 36.49043823 31.80664062 35.07177734 C31.785219 32.90478547 31.80645163 30.74110799 31.83203125 28.57421875 C31.82938789 27.19270104 31.82426272 25.8111854 31.81640625 24.4296875 C31.81189453 23.17736328 31.80738281 21.92503906 31.80273438 20.63476562 C31.50759558 17.38370198 31.50759558 17.38370198 29.71875 14.9921875 C26.45372807 12.85393879 23.59609397 12.8227466 19.81640625 12.8671875 C19.09908325 12.8633606 18.38176025 12.85953369 17.6427002 12.85559082 C16.12978711 12.85287523 14.6168268 12.86021195 13.10400391 12.87695312 C10.79222649 12.89837199 8.48355612 12.87714399 6.171875 12.8515625 C4.69921191 12.85420584 3.22655075 12.85933097 1.75390625 12.8671875 C1.06526489 12.85909058 0.37662354 12.85099365 -0.33288574 12.84265137 C-3.5017074 12.9043599 -5.47265569 13.24155051 -8.15063477 14.97631836 Z " fill="#1F1F1F" transform="translate(321.71484375,350.6015625)"/>
<path d="M0 0 C0.83676773 -0.00524185 1.67353546 -0.0104837 2.53565979 -0.0158844 C4.29630428 -0.02227592 6.05699164 -0.021005 7.81762695 -0.01245117 C10.49313295 -0.00394052 13.16650119 -0.03274191 15.84179688 -0.06445312 C17.56119728 -0.06606555 19.28060143 -0.06548681 21 -0.0625 C22.18474159 -0.07935097 22.18474159 -0.07935097 23.39341736 -0.09654236 C29.94706597 -0.01539328 35.29203158 1.83294653 40.125 6.36328125 C40.80755859 7.32621094 40.80755859 7.32621094 41.50390625 8.30859375 C41.97699219 8.94539063 42.45007813 9.5821875 42.9375 10.23828125 C46.15303318 16.49132501 45.28683537 24.36898847 45.30664062 31.20922852 C45.31633102 33.23040173 45.34740221 35.2505496 45.37890625 37.27148438 C45.41318432 45.89670489 44.84385642 52.8706399 40.31640625 60.30859375 C34.87179682 65.45072488 29.0108302 65.88505115 21.87890625 65.83203125 C20.58690308 65.83633652 20.58690308 65.83633652 19.26879883 65.84072876 C17.45686176 65.84276036 15.6449023 65.83729411 13.83300781 65.82470703 C11.07436648 65.80864011 8.31719003 65.82458626 5.55859375 65.84375 C3.79036138 65.84176741 2.02212991 65.8379234 0.25390625 65.83203125 C-0.56295654 65.83810394 -1.37981934 65.84417664 -2.22143555 65.85043335 C-8.06699137 65.77935471 -13.0092999 64.8827735 -17.640625 61.00390625 C-22.18580098 55.06145002 -23.243227 50.49430859 -23.234375 43.09765625 C-23.23866013 42.30007904 -23.24294525 41.50250183 -23.24736023 40.68075562 C-23.25308713 38.99811754 -23.25361591 37.31545471 -23.24926758 35.6328125 C-23.24611248 33.07378351 -23.26956931 30.51591711 -23.29492188 27.95703125 C-23.29719571 26.3164077 -23.29789798 24.67578106 -23.296875 23.03515625 C-23.30608475 22.27764069 -23.31529449 21.52012512 -23.32478333 20.73965454 C-23.28054986 15.59748693 -22.23115383 12.04086429 -19.93359375 7.43359375 C-19.27359375 7.43359375 -18.61359375 7.43359375 -17.93359375 7.43359375 C-17.93359375 6.77359375 -17.93359375 6.11359375 -17.93359375 5.43359375 C-17.27359375 5.43359375 -16.61359375 5.43359375 -15.93359375 5.43359375 C-15.93359375 4.77359375 -15.93359375 4.11359375 -15.93359375 3.43359375 C-10.43072187 0.67827579 -6.11412217 -0.02266693 0 0 Z M-8.36938477 15.02294922 C-10.48939737 18.29015766 -10.45086073 20.58355668 -10.46484375 24.46484375 C-10.46867065 25.13777466 -10.47249756 25.81070557 -10.47644043 26.50402832 C-10.47915505 27.92278545 -10.47182509 29.34159302 -10.45507812 30.76025391 C-10.4336565 32.92724578 -10.45488913 35.09092326 -10.48046875 37.2578125 C-10.47782539 38.63933021 -10.47270022 40.02084585 -10.46484375 41.40234375 C-10.46033203 42.65466797 -10.45582031 43.90699219 -10.45117188 45.19726562 C-10.15579357 48.44850807 -10.15579357 48.44850807 -8.3671875 50.84204102 C-5.09803022 52.98004626 -2.24572488 52.99136596 1.53515625 52.9296875 C2.25247925 52.93114273 2.96980225 52.93259796 3.7088623 52.93409729 C5.22180249 52.93244116 6.73476001 52.92091165 8.24755859 52.90014648 C10.55899859 52.87118656 12.868144 52.87954218 15.1796875 52.89257812 C16.65235486 52.88634022 18.125015 52.87794885 19.59765625 52.8671875 C20.28629761 52.87012314 20.97493896 52.87305878 21.68444824 52.87608337 C24.71166274 52.81677931 26.80538359 52.57902748 29.47070312 51.09399414 C33.78875139 46.60087201 32.25091054 38.780817 32.25390625 32.99609375 C32.27227539 31.13500977 32.27227539 31.13500977 32.29101562 29.23632812 C32.29294922 28.04458984 32.29488281 26.85285156 32.296875 25.625 C32.30098389 24.53388916 32.30509277 23.44277832 32.30932617 22.31860352 C32.06547932 19.42258515 31.68057198 17.82511213 30.06640625 15.43359375 C26.4794389 13.04228218 23.84264049 13.11096045 19.6953125 13.09765625 C18.61720558 13.08767105 18.61720558 13.08767105 17.51731873 13.07748413 C15.99846961 13.06736802 14.47957613 13.06266679 12.96069336 13.06298828 C10.64036659 13.05861535 8.32194331 13.02229058 6.00195312 12.984375 C4.52474608 12.97850643 3.04753001 12.97453731 1.5703125 12.97265625 C0.53264488 12.9510997 0.53264488 12.9510997 -0.52598572 12.92910767 C-3.72011301 12.95931253 -5.67429913 13.26440382 -8.36938477 15.02294922 Z " fill="#1C1C1C" transform="translate(151.93359375,350.56640625)"/>
<path d="M0 0 C0.81315674 -0.00524185 1.62631348 -0.0104837 2.46411133 -0.0158844 C4.1717007 -0.02226594 5.87933426 -0.02101817 7.58691406 -0.01245117 C10.18114249 -0.00392714 12.77317504 -0.0327769 15.3671875 -0.06445312 C17.03645768 -0.06606528 18.70573171 -0.06548733 20.375 -0.0625 C21.13981689 -0.07373398 21.90463379 -0.08496796 22.69262695 -0.09654236 C28.27283452 -0.02525926 32.5055045 1.36588351 37.1875 4.43359375 C42.57689563 9.96481558 43.49727866 15.25137552 43.48828125 22.76953125 C43.49256638 23.56710846 43.4968515 24.36468567 43.50126648 25.18643188 C43.50699338 26.86906996 43.50752216 28.55173279 43.50317383 30.234375 C43.50001873 32.79340399 43.52347556 35.35127039 43.54882812 37.91015625 C43.55110196 39.5507798 43.55180423 41.19140644 43.55078125 42.83203125 C43.559991 43.58954681 43.56920074 44.34706238 43.57868958 45.12753296 C43.52324289 51.57324413 42.05058039 56.16768516 37.875 61.24609375 C32.42494948 65.68218138 26.78199711 65.74179682 20.0625 65.734375 C19.19737793 65.73866013 18.33225586 65.74294525 17.44091797 65.74736023 C15.61882398 65.75308201 13.79670715 65.75361972 11.97460938 65.74926758 C9.19621696 65.74610368 6.41888632 65.76960686 3.640625 65.79492188 C1.86458467 65.79719479 0.08854149 65.7978984 -1.6875 65.796875 C-2.51266113 65.80608475 -3.33782227 65.81529449 -4.18798828 65.82478333 C-9.9833168 65.77856388 -14.11457192 64.68186715 -18.6875 60.87109375 C-19.8125 59.43359375 -19.8125 59.43359375 -19.8125 57.43359375 C-20.4725 57.43359375 -21.1325 57.43359375 -21.8125 57.43359375 C-23.3828145 54.6337287 -24.07346887 52.56304311 -24.15063477 49.35864258 C-24.17307755 48.5671431 -24.19552032 47.77564362 -24.21864319 46.9601593 C-24.23028 46.11221298 -24.24191681 45.26426666 -24.25390625 44.390625 C-24.26767807 43.50759201 -24.28144989 42.62455902 -24.29563904 41.71476746 C-24.31889063 39.84628539 -24.33616645 37.97772075 -24.34790039 36.10913086 C-24.37475145 33.27235287 -24.44965325 30.43935005 -24.52539062 27.60351562 C-24.76755811 11.25097102 -24.76755811 11.25097102 -19.10522461 4.96362305 C-13.07131527 0.93694752 -7.13582163 -0.02738981 0 0 Z M-9.24609375 15.02734375 C-11.3709755 18.29150125 -11.3297677 20.58375804 -11.34375 24.46484375 C-11.3475769 25.13777466 -11.35140381 25.81070557 -11.35534668 26.50402832 C-11.3580613 27.92278545 -11.35073134 29.34159302 -11.33398438 30.76025391 C-11.31256275 32.92724578 -11.33379538 35.09092326 -11.359375 37.2578125 C-11.35673164 38.63933021 -11.35160647 40.02084585 -11.34375 41.40234375 C-11.33923828 42.65466797 -11.33472656 43.90699219 -11.33007812 45.19726562 C-11.03493933 48.44832927 -11.03493933 48.44832927 -9.24609375 50.83984375 C-5.98107182 52.97809246 -3.12343772 53.00928465 0.65625 52.96484375 C1.373573 52.96867065 2.090896 52.97249756 2.82995605 52.97644043 C4.34286914 52.97915602 5.85582945 52.9718193 7.36865234 52.95507812 C9.68042976 52.93365926 11.98910013 52.95488726 14.30078125 52.98046875 C15.77344434 52.97782541 17.2461055 52.97270028 18.71875 52.96484375 C19.40739136 52.97294067 20.09603271 52.9810376 20.80554199 52.98937988 C23.98411864 52.92748139 25.94287615 52.59379685 28.62109375 50.83984375 C30.7459755 47.57568625 30.7047677 45.28342946 30.71875 41.40234375 C30.7225769 40.72941284 30.72640381 40.05648193 30.73034668 39.36315918 C30.7330613 37.94440205 30.72573134 36.52559448 30.70898438 35.10693359 C30.68756275 32.93994172 30.70879538 30.77626424 30.734375 28.609375 C30.73173164 27.22785729 30.72660647 25.84634165 30.71875 24.46484375 C30.71423828 23.21251953 30.70972656 21.96019531 30.70507812 20.66992188 C30.40993933 17.41885823 30.40993933 17.41885823 28.62109375 15.02734375 C25.35607182 12.88909504 22.49843772 12.85790285 18.71875 12.90234375 C18.001427 12.89851685 17.284104 12.89468994 16.54504395 12.89074707 C15.03213086 12.88803148 13.51917055 12.8953682 12.00634766 12.91210938 C9.69457024 12.93352824 7.38589987 12.91230024 5.07421875 12.88671875 C3.60155566 12.88936209 2.1288945 12.89448722 0.65625 12.90234375 C-0.03239136 12.89424683 -0.72103271 12.8861499 -1.43054199 12.87780762 C-4.60911864 12.93970611 -6.56787615 13.27339065 -9.24609375 15.02734375 Z " fill="#1D1D1D" transform="translate(237.8125,350.56640625)"/>
<path d="M0 0 C0.66 0.33 1.32 0.66 2 1 C0.70984254 2.62619848 -0.58217697 4.25091983 -1.875 5.875 C-2.95394531 7.23238281 -2.95394531 7.23238281 -4.0546875 8.6171875 C-6 11 -6 11 -8 13 C-7.62472519 7.62106101 -6.00517004 5.51673467 -2 2 C-1.34 1.34 -0.68 0.68 0 0 Z " fill="#7E7E7E" transform="translate(138,280)"/>
<path d="M0 0 C1.32 0.33 2.64 0.66 4 1 C2.88121617 2.17262904 1.75476949 3.33795138 0.625 4.5 C-0.00148437 5.1496875 -0.62796875 5.799375 -1.2734375 6.46875 C-3 8 -3 8 -5 8 C-4.67 6.68 -4.34 5.36 -4 4 C-3.34 4 -2.68 4 -2 4 C-2 3.34 -2 2.68 -2 2 C-1.34 2 -0.68 2 0 2 C0 1.34 0 0.68 0 0 Z " fill="#666666" transform="translate(136,354)"/>
<path d="M0 0 C0.99 0.33 1.98 0.66 3 1 C1.33333333 2.66666667 -0.33333333 4.33333333 -2 6 C-2.556875 6.598125 -3.11375 7.19625 -3.6875 7.8125 C-5 9 -5 9 -7 9 C-5.44499019 5.18315774 -2.96404505 2.80804268 0 0 Z " fill="#878787" transform="translate(138,207)"/>
</svg>
